<mxfile host="app.diagrams.net" modified="2022-03-18T08:09:42.781Z" agent="5.0 (Windows)" etag="R_G9DZewfwmee2tQBX9B" version="17.1.3" type="github">
  <diagram id="huIT8yfWPjrIG61Vbd0z" name="Page-1">
    <mxGraphModel dx="519" dy="282" grid="1" gridSize="10" guides="1" tooltips="1" connect="1" arrows="1" fold="1" page="1" pageScale="1" pageWidth="850" pageHeight="1100" math="0" shadow="0">
      <root>
        <mxCell id="0" />
        <mxCell id="1" parent="0" />
        <mxCell id="Fn60unkbMZBintz-3KZK-15" value="" style="triangle;whiteSpace=wrap;html=1;fillColor=#fff2cc;dashed=1;rotation=-90;strokeColor=none;opacity=35;" parent="1" vertex="1">
          <mxGeometry x="345" y="37.46" width="111.13" height="347.02" as="geometry" />
        </mxCell>
        <mxCell id="Fn60unkbMZBintz-3KZK-5" value="" style="triangle;whiteSpace=wrap;html=1;fillColor=none;dashed=1;rotation=-90;" parent="1" vertex="1">
          <mxGeometry x="345.35" y="37.46" width="111.13" height="347.02" as="geometry" />
        </mxCell>
        <mxCell id="Fn60unkbMZBintz-3KZK-12" value="" style="ellipse;whiteSpace=wrap;html=1;fontSize=8;fillColor=default;strokeColor=none;" parent="1" vertex="1">
          <mxGeometry x="195" y="234" width="415" height="80" as="geometry" />
        </mxCell>
        <mxCell id="Fn60unkbMZBintz-3KZK-2" value="" style="fontColor=#0066CC;verticalAlign=top;verticalLabelPosition=bottom;labelPosition=center;align=center;html=1;outlineConnect=0;fillColor=#CCCCCC;strokeColor=#000000;gradientColor=none;gradientDirection=north;strokeWidth=2;shape=mxgraph.networks.satellite;rotation=-45;" parent="1" vertex="1">
          <mxGeometry x="390.92" y="130" width="20" height="20" as="geometry" />
        </mxCell>
        <mxCell id="Fn60unkbMZBintz-3KZK-3" value="" style="shape=image;html=1;verticalAlign=top;verticalLabelPosition=bottom;labelBackgroundColor=#ffffff;imageAspect=0;aspect=fixed;image=https://cdn4.iconfinder.com/data/icons/game-of-thrones-4/64/game_of_thrones_game_thrones_series_element_fire_flame_heat-128.png;rotation=-5;" parent="1" vertex="1">
          <mxGeometry x="333" y="211" width="28" height="28" as="geometry" />
        </mxCell>
        <mxCell id="Fn60unkbMZBintz-3KZK-4" value="" style="shape=mxgraph.cisco.wireless.ground_terminal;html=1;pointerEvents=1;dashed=0;fillColor=#2E2A2A;strokeColor=#ffffff;strokeWidth=2;verticalLabelPosition=bottom;verticalAlign=top;align=center;outlineConnect=0;rotation=-87.1;direction=south;" parent="1" vertex="1">
          <mxGeometry x="424.00000000000006" y="210" width="29.39" height="20" as="geometry" />
        </mxCell>
        <mxCell id="Fn60unkbMZBintz-3KZK-9" value="&lt;font style=&quot;font-size: 12px&quot;&gt;Fire&lt;/font&gt;" style="text;html=1;strokeColor=none;fillColor=none;align=center;verticalAlign=middle;whiteSpace=wrap;rounded=0;" parent="1" vertex="1">
          <mxGeometry x="298" y="212" width="60" height="30" as="geometry" />
        </mxCell>
        <mxCell id="Fn60unkbMZBintz-3KZK-10" value="" style="endArrow=none;html=1;fontSize=8;curved=1;exitX=0.106;exitY=0.172;exitDx=0;exitDy=0;exitPerimeter=0;entryX=0.895;entryY=0.167;entryDx=0;entryDy=0;entryPerimeter=0;" parent="1" source="Fn60unkbMZBintz-3KZK-12" target="Fn60unkbMZBintz-3KZK-12" edge="1">
          <mxGeometry width="50" height="50" relative="1" as="geometry">
            <mxPoint x="240" y="266.54" as="sourcePoint" />
            <mxPoint x="560" y="266.54" as="targetPoint" />
            <Array as="points">
              <mxPoint x="400" y="220" />
            </Array>
          </mxGeometry>
        </mxCell>
        <mxCell id="Fn60unkbMZBintz-3KZK-13" value="&lt;font style=&quot;font-size: 12px&quot;&gt;Ground&lt;br&gt;station&lt;/font&gt;" style="text;html=1;strokeColor=none;fillColor=none;align=center;verticalAlign=middle;whiteSpace=wrap;rounded=0;fontSize=8;" parent="1" vertex="1">
          <mxGeometry x="439" y="207" width="60" height="30" as="geometry" />
        </mxCell>
        <mxCell id="Fn60unkbMZBintz-3KZK-14" value="&lt;div style=&quot;font-size: 12px&quot;&gt;&lt;font style=&quot;font-size: 12px&quot;&gt;LEO&lt;/font&gt;&lt;/div&gt;&lt;div style=&quot;font-size: 12px&quot;&gt;&lt;font style=&quot;font-size: 12px&quot;&gt;satellite&lt;br&gt;&lt;/font&gt;&lt;/div&gt;" style="text;html=1;strokeColor=none;fillColor=none;align=center;verticalAlign=middle;whiteSpace=wrap;rounded=0;fontSize=8;" parent="1" vertex="1">
          <mxGeometry x="410.92" y="125" width="60" height="30" as="geometry" />
        </mxCell>
      </root>
    </mxGraphModel>
  </diagram>
</mxfile>
